HIERARCHY
ROOT Hips
{
  OFFSET 2.26061 22.2878 23.7974
  CHANNELS 6 Xposition Yposition Zposition Zrotation Xrotation Yrotation
  JOINT LeftUpLeg
  {
    OFFSET 8.64259 1.95398 -2.38835
    CHANNELS 3 Zrotation Xrotation Yrotation
    JOINT LeftLeg
    {
      OFFSET 43.7702 0 0
      CHANNELS 3 Zrotation Xrotation Yrotation
      JOINT LeftFoot
      {
        OFFSET 40.6238 0 0
        CHANNELS 3 Zrotation Xrotation Yrotation
        JOINT LeftToeBase
        {
          OFFSET 12.7242 0 0
          CHANNELS 3 Zrotation Xrotation Yrotation
          End Site
          {
            OFFSET 0 0 0
          }
        }
      }
    }
  }
  JOINT RightUpLeg
  {
    OFFSET -8.2249 1.95398 -2.59336
    CHANNELS 3 Zrotation Xrotation Yrotation
    JOINT RightLeg
    {
      OFFSET 43.5653 0 0
      CHANNELS 3 Zrotation Xrotation Yrotation
      JOINT RightFoot
      {
        OFFSET 40.6238 0 0
        CHANNELS 3 Zrotation Xrotation Yrotation
        JOINT RightToeBase
        {
          OFFSET 12.7242 0 0
          CHANNELS 3 Zrotation Xrotation Yrotation
          End Site
          {
            OFFSET 0 0 0
          }
        }
      }
    }
  }
  JOINT Spine
  {
    OFFSET 0.165834 0.87714 6.61349
    CHANNELS 3 Zrotation Xrotation Yrotation
    JOINT Spine1
    {
      OFFSET 7.38963 1.71661e-005 0
      CHANNELS 3 Zrotation Xrotation Yrotation
      JOINT Spine2
      {
        OFFSET 11.9445 1.14441e-005 0
        CHANNELS 3 Zrotation Xrotation Yrotation
        JOINT Spine3
        {
          OFFSET 14.7254 4.19617e-005 0
          CHANNELS 3 Zrotation Xrotation Yrotation
          JOINT Spine4
          {
            OFFSET 10.9679 0 0
            CHANNELS 3 Zrotation Xrotation Yrotation
            JOINT RightShoulder
            {
              OFFSET 2.46616 -1.6653 3.69651
              CHANNELS 3 Zrotation Xrotation Yrotation
              JOINT RightArm
              {
                OFFSET 13.0012 0 0
                CHANNELS 3 Zrotation Xrotation Yrotation
                JOINT RightForeArm
                {
                  OFFSET 28.7848 1.52588e-005 0
                  CHANNELS 3 Zrotation Xrotation Yrotation
                  JOINT RightHand
                  {
                    OFFSET 26.5688 1.52588e-005 0
                    CHANNELS 3 Zrotation Xrotation Yrotation
                    End Site
                    {
                      OFFSET 0 0 0
                    }
                  }
                }
              }
            }
            JOINT LeftShoulder
            {
              OFFSET 2.38034 -1.29275 -3.7523
              CHANNELS 3 Zrotation Xrotation Yrotation
              JOINT LeftArm
              {
                OFFSET 16.3182 6.10351e-005 0
                CHANNELS 3 Zrotation Xrotation Yrotation
                JOINT LeftForeArm
                {
                  OFFSET 27.0901 0 0
                  CHANNELS 3 Zrotation Xrotation Yrotation
                  JOINT LeftHand
                  {
                    OFFSET 24.5451 1.52588e-005 0
                    CHANNELS 3 Zrotation Xrotation Yrotation
                    End Site
                    {
                      OFFSET 0 0 0
                    }
                  }
                }
              }
            }
            JOINT Neck
            {
              OFFSET 5.0226 -0.0266342 0
              CHANNELS 3 Zrotation Xrotation Yrotation
              JOINT Head
              {
                OFFSET 6.69363 2.86102e-005 0
                CHANNELS 3 Zrotation Xrotation Yrotation
                End Site
                {
                  OFFSET 0 0 0
                }
              }
            }
          }
        }
      }
    }
  }
}
MOTION
Frames:	9
Frame Time:	0.0416667
71.1137 96.7039 160.095 79.9133 -39.4492 85.8969 -170.065 30.5661 82.4006 -17.8259 4.81747 -7.23536 60.7108 0.169376 -1.603 36.0843 5.77488 9.25536 171.6 -1.38801 92.9989 -38.9574 -23.4554 1.05935 44.3044 5.1863 4.70564 45.1608 0.909057 1.11862 2.29111 7.49021 -89.4656 11.8912 4.80742 0.551004 0.229136 4.82702 0.338387 -22.368 4.41917 1.97307 -2.35531 4.41917 1.97307 92.3048 -42.0675 -98.9325 14.9406 -3.85156 -2.03261 -16.0671 -9.5612 -76.0317 -6.25028 -0.350992 -2.02951 -86.4951 -42.1141 82.646 -46.5427 7.06653 53.2279 2.88911 34.0406 -17.8118 -17.0608 -0.883133 1.77813 -8.11017 -12.3731 8.93601 11.5536 -14.7423 -15.3469 
75.1796 96.4076 164.932 79.5108 -38.9955 85.0898 -170.775 29.901 81.1989 -24.1874 4.33785 -5.25928 66.7389 6.28585 1.08444 33.2313 3.27663 5.8812 170.039 1.77877 91.0963 -47.4746 -16.5531 1.21518 44.5423 4.55146 4.15012 42.2769 0.444408 -4.28891 2.01251 7.36561 -89.4413 12.1374 4.2647 0.643272 0.473411 4.28889 0.454603 -22.1089 3.87394 1.89704 -2.09624 3.87395 1.89704 93.0196 -44.7181 -97.173 15.7338 -3.96576 -1.90542 -16.2383 -9.75064 -75.2904 -5.90704 -0.239818 -3.9793 -89.0513 -44.9223 79.0829 -48.6145 6.56071 51.7564 2.40165 35.3568 -16.5144 -23.6435 -1.37362 2.4552 -5.6698 -11.5204 7.97706 10.471 -13.5667 -13.0347 
78.5338 96.2722 169.054 80.5477 -39.6067 83.8684 -170.623 26.0031 80.2903 -25.9432 2.60966 -5.19312 70.9263 10.4847 2.34293 31.6054 2.04406 2.98028 170.056 7.83086 88.0906 -59.3326 -9.76593 -0.165343 49.6744 2.31449 2.00253 38.7682 0.333826 -7.14072 1.7733 7.54483 -89.3361 11.7731 3.83868 0.917136 0.107637 3.87531 0.747048 -22.4623 3.38544 2.02952 -2.44962 3.38542 2.02951 92.5417 -46.7942 -97.5348 17.1241 -3.45691 -0.0101621 -13.7507 -10.7009 -72.0897 -8.95431 -0.242955 -3.61543 -93.8141 -50.1415 73.0893 -48.6714 9.33633 45.8588 2.96392 36.0391 -18.4666 -25.7857 -1.54652 2.63259 -3.89896 -10.7828 8.68992 10.9357 -12.9967 -12.6344 
81.7095 96.678 172.576 80.9515 -40.1152 83.7437 -171.183 21.982 80.6454 -24.9321 1.5602 -4.80354 73.3351 12.791 3.02222 30.4305 1.11252 2.40014 171.684 15.1308 87.6711 -66.7178 -4.29469 -1.24281 55.4483 -0.0561693 0.100439 35.2346 0.390033 -8.51433 1.52714 7.623 -89.4406 11.6198 3.29992 0.772902 -0.0471215 3.33076 0.62676 -22.6081 2.91499 1.72965 -2.5954 2.91498 1.72964 92.812 -47.8062 -96.9099 19.672 -4.23469 2.38916 -11.6185 -11.0796 -68.1233 -12.9988 -0.349276 -2.57505 -95.3172 -52.5987 71.5977 -45.2345 14.3174 36.5268 4.65265 36.8174 -22.4363 -20.874 -1.31703 3.05179 -4.05732 -9.80664 9.92753 12.8866 -12.2606 -12.1522 
85.3501 97.6051 176.017 80.0675 -37.3568 84.1342 -172.815 18.3673 81.3486 -21.6992 3.54745 -3.46089 72.3597 12.9847 4.49352 31.9975 2.38523 2.67989 172.238 22.0955 88.2683 -67.8645 0.490177 -0.959041 60.1815 -1.72487 -1.00231 34.3529 0.412219 -8.50281 0.988967 7.57985 -89.6284 11.7104 2.14147 0.51676 0.041162 2.16213 0.421958 -22.5046 1.88712 1.13665 -2.49194 1.88715 1.13665 93.4142 -49.6235 -95.6365 21.5466 -4.63002 5.12061 -10.3078 -12.3834 -63.1962 -15.26 -0.405008 -2.31594 -95.0344 -52.1991 71.8904 -40.5801 15.9376 27.1375 8.81256 32.3127 -29.1571 -5.50575 -0.360825 6.75554 -3.12246 -8.51499 7.5547 13.4534 -10.3429 -8.37471 
88.8298 98.9658 179.208 81.4131 -34.516 85.9489 -174.583 12.5519 82.3767 -16.901 7.17101 -1.93276 68.4254 11.0004 6.38078 34.8692 4.74627 3.11028 172.408 26.1933 88.3235 -64.0618 0.840003 -0.709741 62.4952 -2.17837 -1.24597 37.5862 0.328102 -8.87605 0.511061 7.68999 -89.9172 11.494 1.05552 0.0571696 -0.176483 1.05701 0.0106508 -22.7147 0.989549 0.371785 -2.70211 0.989533 0.371799 93.5698 -51.6881 -95.0558 21.2464 -4.84554 8.40982 -9.18559 -14.4616 -57.5493 -15.791 -0.480712 -1.82253 -97.171 -52.4843 68.9143 -34.7178 14.7303 19.6375 11.835 23.5961 -37.2682 9.77972 1.40885 9.64606 -4.19179 -7.83317 8.2915 13.8763 -9.68283 -8.27282 
92.399 100.105 182.66 81.0556 -32.7212 87.1916 -175.215 8.15285 84.0316 -13.0615 6.57575 -0.60365 66.5562 8.99975 3.03637 35.7089 5.43729 4.29465 172.719 29.6967 88.9342 -55.7951 -0.526381 -0.275567 64.3192 -2.46692 -1.38211 39.1834 0.280155 -8.95694 0.130978 7.59837 -90.1991 11.6764 0.167252 -0.414722 0.00543267 0.14882 -0.421682 -22.5294 0.284132 -0.345287 -2.51675 0.284139 -0.345295 93.8186 -52.1486 -94.607 22.1674 -4.7756 11.1452 -8.78973 -16.9189 -51.838 -14.5547 -0.707421 0.0128849 -97.8176 -52.1604 67.8889 -28.6458 11.9766 12.5515 12.7908 15.1421 -45.9974 22.867 3.02961 9.50743 -5.23519 -7.03762 7.36648 14.3183 -8.53195 -6.59948 
95.8253 100.602 186.419 80.4783 -31.951 87.0548 -174.761 4.39033 85.3455 -10.0093 7.83054 -0.370229 65.1395 7.65221 2.17643 37.295 6.81858 6.21222 173.23 32.133 88.7291 -44.2369 -1.08962 -0.0723914 65.2064 -2.56142 -1.40949 40.5892 0.202395 -10.0082 -0.150443 7.50101 -90.2548 11.8707 -0.418937 -0.462953 0.199764 -0.438911 -0.44407 -22.335 -0.260443 -0.567448 -2.32234 -0.260433 -0.567456 94.4697 -53.1423 -93.4875 21.9908 -4.79137 12.8761 -8.0396 -20.2153 -46.3086 -10.7065 -0.764001 1.42443 -97.7584 -51.6141 67.796 -22.69 6.49829 5.99454 15.5136 9.15348 -56.2922 20.3388 2.23421 7.13461 -5.95524 -6.37573 5.63538 14.9053 -7.52071 -5.12889 
99.192 100.217 190.42 80.7604 -31.3419 86.9451 -174.031 2.02553 86.395 -11.8817 9.9193 -0.15161 66.4657 7.38511 1.59729 37.6709 7.23922 9.59835 173.528 32.0405 88.3302 -29.2389 -0.575502 0.119148 66.0196 -2.80136 -1.52698 41.9248 0.131969 -10.4757 -0.407066 7.45725 -90.2198 11.9581 -0.912942 -0.339468 0.287432 -0.926985 -0.298965 -22.2493 -0.768719 -0.598162 -2.23666 -0.768695 -0.598163 94.7982 -54.4931 -92.8162 21.4518 -4.35129 14.8871 -8.00372 -23.9471 -40.9404 -7.42488 -0.727689 2.10509 -97.4902 -50.8966 67.9507 -16.631 2.60349 -1.36081 16.1635 6.06994 -62.73 19.524 1.68555 4.80549 -6.19868 -5.69245 4.11286 14.9558 -6.60298 -4.29362 
